<?xml version="1.0" encoding="utf-8"?>
<svg width="196" height="111" viewBox="0 0 196 111" fill="none" xmlns="http://www.w3.org/2000/svg">
  <path d="M190.433 43.8826V71.3697L189.038 69.2039L169.863 41.1827L169.822 41.1201H167.387H164.664V43.8743V80.6461H169.999V50.4717L171.229 52.4496L190.515 80.5835L190.557 80.6461H195.768V41.1201H193.193L190.433 43.8826Z" style="fill: rgb(51, 51, 51);"/>
  <path d="M123.892 75.5844V41.1201H121.288L118.553 43.8826V80.6461H141.181V75.5844H123.892Z" style="fill: rgb(51, 51, 51);"/>
  <path d="M150.42 43.8743V80.6461H155.755V41.1201H153.135L150.42 43.8743Z" style="fill: rgb(51, 51, 51);"/>
  <path d="M51.6731 42.2635H63.4454L63.4496 13.3617H75.6263V0.834595H39.4922V13.3617H51.6731V42.2635Z" style="fill: rgb(0, 76, 108);"/>
  <path d="M75.6394 75.4674C75.6394 80.3164 73.8032 84.4977 70.3247 87.5689C67.0236 90.49 62.4847 92.0674 57.562 92.0674H57.2773C52.4536 92.0089 48.0343 90.3982 44.7952 87.5731C41.3167 84.5102 39.4805 80.3331 39.4805 75.4716V49.5452H51.257V73.6814C51.2509 74.4699 51.4091 75.2508 51.7212 75.9733C52.0333 76.6959 52.4923 77.3439 53.0684 77.8752C54.3005 78.9678 55.8781 79.579 57.5166 79.5986H57.5826C59.2142 79.5751 60.7841 78.9641 62.0102 77.8752C62.5857 77.3437 63.0441 76.6956 63.3555 75.973C63.6669 75.2504 63.8243 74.4696 63.8175 73.6814V49.5452H75.594L75.6394 75.4674Z" style="fill: rgb(0, 76, 108);"/>
  <path d="M 104.556 59.89 C 107.201 58.008 108.542 55.329 108.542 51.916 C 108.542 48.677 107.395 45.952 105.241 44.045 C 103.087 42.138 99.968 41.124 96.271 41.124 L 85.282 41.124 L 85.319 51.836 L 85.319 80.65 L 97.987 80.65 C 105.852 80.65 110.936 76.194 110.936 69.292 C 110.936 64.918 108.563 61.426 104.569 59.894 L 104.556 59.89 Z M 90.642 63.011 L 97.975 63.011 C 102.671 63.011 105.476 65.323 105.476 69.191 C 105.476 73.206 102.671 75.601 97.975 75.601 L 90.642 75.601 L 90.642 63.011 Z M 96.481 58.004 L 90.642 58.004 L 90.642 53.756 L 90.605 46.182 L 96.258 46.182 C 100.636 46.182 103.149 48.373 103.149 52.195 C 103.149 55.717 100.529 57.987 96.481 57.987" style="fill: rgb(51, 51, 51);"/>
  <path d="M 31.642 62.582 C 32.267 59.218 31.282 53.215 29.345 49.97 C 26.13 44.585 22.43 41.116 14.999 41.116 L 0.887 41.116 L 0.887 80.642 L 11.677 80.642 C 17.59 80.642 22.587 78.76 26.119 75.217 C 29.651 71.674 30.574 68.327 31.642 62.582 Z M 24.849 51.916 C 26.413 54.589 27.178 58.262 26.525 61.289 C 25.718 65.029 24.708 69.108 22.179 71.674 C 19.649 74.241 16.034 75.568 11.677 75.568 L 6.226 75.568 L 6.226 46.182 L 14.999 46.182 C 20.247 46.182 22.662 48.178 24.849 51.916 Z" style="fill: rgb(51, 51, 51);"/>
</svg>